<svg xmlns="http://www.w3.org/2000/svg" viewBox="0 0 29.3 29.3"><defs><style>.cls-1{fill:none;stroke:#d0021b;stroke-miterlimit:10;stroke-width:0.61px;}.cls-2{fill:#d0021b;}.cls-3{fill:#fff;}</style></defs><title>Asset 1</title><g id="Layer_2" data-name="Layer 2"><g id="Layer_1-2" data-name="Layer 1"><rect class="cls-1" x="0.3" y="4" width="25" height="25" rx="1.34"/><path class="cls-2" d="M10.3,14.8a1.87,1.87,0,0,1,.31-1A2.42,2.42,0,0,1,11.5,13a2.82,2.82,0,0,1,1.36-.32,2.87,2.87,0,0,1,1.28.27,2.07,2.07,0,0,1,.86.73,1.8,1.8,0,0,1,.3,1,1.47,1.47,0,0,1-.17.74,2.13,2.13,0,0,1-.41.56l-.85.78a2.27,2.27,0,0,0-.27.27,1.34,1.34,0,0,0-.16.22.73.73,0,0,0-.07.19l-.09.34a.56.56,0,0,1-.59.53.64.64,0,0,1-.44-.17.69.69,0,0,1-.18-.51,2,2,0,0,1,.13-.73,2.18,2.18,0,0,1,.35-.54c.14-.15.34-.34.58-.55l.46-.42a1.22,1.22,0,0,0,.24-.32.72.72,0,0,0,.1-.38.9.9,0,0,0-.3-.68,1.1,1.1,0,0,0-.77-.27,1.06,1.06,0,0,0-.81.28,2.18,2.18,0,0,0-.44.81c-.11.38-.32.57-.64.57a.62.62,0,0,1-.47-.2A.6.6,0,0,1,10.3,14.8Zm2.44,5.49a.79.79,0,0,1-.53-.2.7.7,0,0,1-.23-.55A.72.72,0,0,1,12.2,19a.73.73,0,0,1,.54-.22.69.69,0,0,1,.53.22.68.68,0,0,1,.22.53.72.72,0,0,1-.23.55A.77.77,0,0,1,12.74,20.29Z"/><path class="cls-2" d="M29.3,5a5,5,0,1,0-5,5A5,5,0,0,0,29.3,5Z"/><path class="cls-3" d="M24.88,7.14h-.69V4.38c0-.33,0-.6,0-.79,0,.05-.1.1-.16.16l-.66.53L23,3.85l1.26-1h.58Z"/></g></g></svg>